PathFileType	4	(X/Y/Z)	./resultDataOpenSim/trcMotMarkerGrf/sub06/qtm-03-03.trc
DataRate	CameraRate	NumFrames	NumMarkers	Units	OrigDataRate	OrigDataStartFrame	OrigNumFrames
250.000000	250.000000	6	24	m	250.000000	248	495
Frame#	Time	L.Toe.Tip			R.Toe.Tip			L.Ankle.Lat			R.Ankle.Lat			L.Ankle.Med			R.Ankle.Med			L.Heel			R.Heel			L.Knee.Lat			R.Knee.Lat			L.Knee.Med			R.Knee.Med			L.Thigh.Upper			R.Thigh.Upper			L.ASIS			R.ASIS			V.Sacral			L.Acromium			R.Acromium			C7			L.Elbow			R.Elbow			L.Wrist.Lat			R.Wrist.Lat
		X1	Y1	Z1	X2	Y2	Z2	X3	Y3	Z3	X4	Y4	Z4	X5	Y5	Z5	X6	Y6	Z6	X7	Y7	Z7	X8	Y8	Z8	X9	Y9	Z9	X10	Y10	Z10	X11	Y11	Z11	X12	Y12	Z12	X13	Y13	Z13	X14	Y14	Z14	X15	Y15	Z15	X16	Y16	Z16	X17	Y17	Z17	X18	Y18	Z18	X19	Y19	Z19	X20	Y20	Z20	X21	Y21	Z21	X22	Y22	Z22	X23	Y23	Z23	X24	Y24	Z24

248	0.988	0.054090708	-0.015896336	-0.017396807	0.6816219	0.11064307	0.17568988	-0.057698699	0.047890743	-0.03879737	0.54493487	0.096010392	0.17638323	-0.049460422	0.063143011	0.04687622	0.5708963	0.13037676	0.095298874	-0.13220124	0.039381057	0.010095506	0.51208646	0.063348372	0.10470958	0.082908186	0.39156927	-0.057420462	0.46886187	0.48101094	0.19836494	0.073374471	0.39186595	0.064444666	0.46221614	0.4626733	0.072757105	0.19236934	0.75941313	-0.12192803	0.23762176	0.77172034	0.22759684	0.28244376	0.79971055	-0.088188501	0.3155132	0.81768193	0.15603315	0.11741698	0.8878599	0.059723087	0.27752592	1.2915128	-0.14228264	0.25863682	1.2805933	0.219888	0.19466026	1.3271366	0.032943779	0.27898133	0.96566492	-0.21743813	0.094279746	1.0139345	0.26779957	0.51110741	0.88012413	-0.16326895	0.12011535	0.79371226	0.35940036
249	0.992	0.05412116	-0.015902432	-0.017414078	0.69712374	0.11274349	0.17528606	-0.056954096	0.048631548	-0.039148171	0.56076119	0.095542615	0.17636708	-0.04875191	0.063854139	0.046580346	0.58540802	0.13077391	0.095435789	-0.13160814	0.040859758	0.0096156368	0.52799323	0.062549144	0.10522048	0.086889807	0.39116475	-0.057460605	0.47521622	0.47839804	0.19801056	0.077301865	0.39141278	0.064473914	0.46892357	0.46009404	0.072179718	0.19775053	0.75826296	-0.12157649	0.24546123	0.77004884	0.22790518	0.28837657	0.79833714	-0.088279799	0.32262218	0.81604432	0.15568876	0.1237999	0.88649456	0.060822341	0.28391692	1.2901661	-0.14182208	0.26529946	1.2790029	0.2204736	0.20117172	1.325791	0.033569028	0.28735313	0.96416317	-0.21685296	0.10070581	1.0126656	0.26830468	0.51980257	0.8803296	-0.16151121	0.12499135	0.79257972	0.36035981
250	0.996	0.054156437	-0.015910323	-0.017431099	0.71188957	0.11491382	0.1747846	-0.056132309	0.049393592	-0.039481874	0.57578148	0.095247737	0.17631511	-0.047976231	0.06459583	0.046309021	0.59925536	0.13121097	0.095524137	-0.13096128	0.04239452	0.0091707553	0.54318477	0.061861155	0.10560936	0.091185186	0.39072878	-0.057545389	0.48162479	0.47579815	0.19765702	0.081354415	0.39095403	0.064536097	0.4755812	0.45750411	0.071510156	0.20319854	0.75707117	-0.12121058	0.25325216	0.76834021	0.22815749	0.29426898	0.79697788	-0.088328351	0.32982156	0.81442908	0.1553807	0.13024907	0.88513104	0.061925535	0.29032627	1.288818	-0.14135003	0.2719962	1.2774082	0.22109135	0.20775604	1.3244413	0.034169225	0.29556877	0.9627157	-0.21620745	0.10719577	1.0113649	0.26884951	0.52842853	0.88045884	-0.15978194	0.13006564	0.79145971	0.36133735
251	1	0.054196763	-0.01592074	-0.017458056	0.72585613	0.11708582	0.17418357	-0.055269254	0.050201471	-0.039801353	0.58991681	0.095089468	0.17625364	-0.047142506	0.065369868	0.046049566	0.61240406	0.13161763	0.095560974	-0.13026031	0.043996059	0.008751312	0.55760686	0.06124236	0.10583864	0.095697953	0.39026175	-0.057644746	0.48813003	0.47326682	0.19731587	0.085520648	0.39043656	0.064679201	0.48222224	0.4549283	0.070781525	0.20872625	0.75585683	-0.12081546	0.26106395	0.76662488	0.22840255	0.30005695	0.7956531	-0.088312472	0.337084	0.81284148	0.15510255	0.13679671	0.88377766	0.063022504	0.29675496	1.2874793	-0.14086015	0.27872964	1.2758182	0.22174299	0.21440961	1.3231017	0.034760352	0.30352895	0.96141372	-0.2154462	0.11374902	1.0100371	0.26943177	0.53697636	0.88051136	-0.15808837	0.13533633	0.79031914	0.36233474
252	1.004	0.05424466	-0.015932305	-0.017506941	0.73898677	0.11916203	0.17350119	-0.054367669	0.051061783	-0.040108226	0.60317316	0.094966999	0.17616191	-0.04625797	0.066178589	0.045791362	0.62482907	0.13191185	0.095553873	-0.12949987	0.045670938	0.0083480439	0.57121964	0.060620278	0.10594765	0.10025236	0.38975336	-0.057688279	0.49477491	0.47086223	0.19698382	0.089786895	0.38981653	0.064940498	0.48889418	0.45239706	0.070043492	0.21433658	0.75463271	-0.12039172	0.2689525	0.7649261	0.2286721	0.30574687	0.79436588	-0.088239175	0.3443878	0.81128291	0.15485117	0.14346611	0.88244234	0.064105827	0.30321027	1.2861578	-0.1403461	0.28550986	1.2742415	0.22242482	0.2210791	1.3217919	0.035420254	0.3113928	0.9603079	-0.21444876	0.12037361	1.0086883	0.27004697	0.54544395	0.88048732	-0.1564209	0.14077232	0.78913098	0.36333891
253	1.008	0.054303013	-0.015942289	-0.017583778	0.75126636	0.12104663	0.17275604	-0.053406548	0.051969268	-0.04040603	0.61558598	0.094790839	0.1760181	-0.045316056	0.067027267	0.045527736	0.63651731	0.13202006	0.09550084	-0.12866869	0.047423118	0.0079556891	0.5839957	0.059930099	0.10599254	0.10479178	0.38919592	-0.057652694	0.50159547	0.46864104	0.19662989	0.094211485	0.38912785	0.065249487	0.49561882	0.44993853	0.069318338	0.22002937	0.75340583	-0.11994624	0.27685753	0.76323001	0.22891975	0.31146081	0.79309758	-0.088157561	0.35173065	0.80975732	0.15462626	0.15026211	0.8811302	0.065171917	0.30969898	1.284858	-0.13980543	0.2923462	1.2726822	0.22313344	0.22771572	1.3205203	0.036209461	0.31969941	0.95933548	-0.21304254	0.12707941	1.0073245	0.2706903	0.55383642	0.88038658	-0.15476213	0.14632823	0.78788904	0.36432789
